<?xml version="1.0" standalone="no"?><!DOCTYPE svg PUBLIC "-//W3C//DTD SVG 1.1//EN" "http://www.w3.org/Graphics/SVG/1.1/DTD/svg11.dtd"><svg t="1645521047071" class="icon" viewBox="0 0 1024 1024" version="1.1" xmlns="http://www.w3.org/2000/svg" p-id="7915" xmlns:xlink="http://www.w3.org/1999/xlink" width="200" height="200"><defs><style type="text/css"></style></defs><path d="M721.454545 325.818182h-162.90909a34.909091 34.909091 0 0 0 0 69.818182h162.90909a34.909091 34.909091 0 0 0 0-69.818182zM721.454545 628.363636h-162.90909a34.909091 34.909091 0 0 0 0 69.818182h162.90909a34.909091 34.909091 0 0 0 0-69.818182zM721.454545 465.454545h-162.90909a34.909091 34.909091 0 0 0 0 69.818182h162.90909a34.909091 34.909091 0 0 0 0-69.818182z" fill="#4A5B71" p-id="7916"></path><path d="M896 814.545455h-26.530909a95.185455 95.185455 0 0 0 3.258182-23.272728V232.727273a93.090909 93.090909 0 0 0-93.090909-93.090909H488.727273a93.090909 93.090909 0 0 0-93.090909 93.090909v212.712727a95.185455 95.185455 0 0 0-23.272728-3.258182h-139.636363a93.090909 93.090909 0 0 0-93.090909 93.090909v256a95.185455 95.185455 0 0 0 3.258181 23.272728H104.727273a34.909091 34.909091 0 0 0 0 69.818181h791.272727a34.909091 34.909091 0 0 0 0-69.818181zM395.636364 791.272727a23.272727 23.272727 0 0 1-23.272728 23.272728h-139.636363a23.272727 23.272727 0 0 1-23.272728-23.272728V535.272727a23.272727 23.272727 0 0 1 23.272728-23.272727h139.636363a23.272727 23.272727 0 0 1 23.272728 23.272727z m407.272727 0a23.272727 23.272727 0 0 1-23.272727 23.272728H488.727273a23.272727 23.272727 0 0 1-23.272728-23.272728V232.727273a23.272727 23.272727 0 0 1 23.272728-23.272728h290.909091a23.272727 23.272727 0 0 1 23.272727 23.272728z" fill="#4A5B71" p-id="7917"></path></svg>