<?xml version="1.0" standalone="no"?><!DOCTYPE svg PUBLIC "-//W3C//DTD SVG 1.1//EN" "http://www.w3.org/Graphics/SVG/1.1/DTD/svg11.dtd"><svg t="1645515942387" class="icon" viewBox="0 0 1024 1024" version="1.1" xmlns="http://www.w3.org/2000/svg" p-id="11512" xmlns:xlink="http://www.w3.org/1999/xlink" width="200" height="200"><defs><style type="text/css"></style></defs><path d="M949.833685 935.532779a435.978533 435.978533 0 0 0-272.351889-397.132695 365.721983 365.721983 0 0 0 124.834684-247.837525c0-5.387772-1.239188-10.021256-1.508576-15.193518h81.516994v-53.877722H793.103389a289.269494 289.269494 0 0 0-562.429548 0H166.990372l-29.417236 1.239187 4.202462 52.584658h80.816584c-0.269389 5.387772-1.616332 10.344523-1.616331 15.732295v7.381248a373.372619 373.372619 0 0 0 124.780806 239.971377 440.396506 440.396506 0 0 0-272.459645 405.699253v21.06619a58.187941 58.187941 0 0 0 17.133116 41.431969 58.942229 58.942229 0 0 0 41.431969 17.133115h758.975481a58.942229 58.942229 0 0 0 41.378092-17.133115 58.187941 58.187941 0 0 0 17.133115-41.431969zM511.807798 53.877723a236.146059 236.146059 0 0 1 225.101126 167.50584H286.706672A236.092181 236.092181 0 0 1 511.807798 53.877723zM275.338473 296.92013v-6.465326c0-5.387772 1.239188-10.075134 1.562454-15.193518h470.137009c0.323266 5.387772 1.508576 10.021256 1.508576 15.193518a317.555298 317.555298 0 0 1-117.130169 217.1811 26.938861 26.938861 0 0 0-9.320846 20.419657v28.285805a25.915185 25.915185 0 0 0 9.482479 19.018836l-81.678628 102.367673a47.08913 47.08913 0 0 1-12.76902 10.344523 26.938861 26.938861 0 0 0-26.238451-23.760076 26.938861 26.938861 0 0 0-25.915185 21.55109 56.840998 56.840998 0 0 1-10.775544-8.243292l-81.678628-102.367673a25.969062 25.969062 0 0 0 9.536357-19.018837v-28.285804a30.656424 30.656424 0 0 0-10.290645-21.173945 323.589603 323.589603 0 0 1-116.375881-209.853731z m-147.678838 668.083764v-21.06619a385.441229 385.441229 0 0 1 220.898663-346.595391l-4.633484 3.771441 87.928444 109.964432 4.040829 4.687362a101.50563 101.50563 0 0 0 47.897295 29.309481v224.616226H132.400874z m763.662843 4.687361H537.669105v-223.538672a102.367673 102.367673 0 0 0 54.200989-35.074397l71.819005-89.868042 16.163317-21.874355a381.292644 381.292644 0 0 1 216.265179 336.843523v28.824582z" p-id="11513"></path></svg>