<?xml version="1.0" standalone="no"?><!DOCTYPE svg PUBLIC "-//W3C//DTD SVG 1.1//EN" "http://www.w3.org/Graphics/SVG/1.1/DTD/svg11.dtd"><svg t="1645515621529" class="icon" viewBox="0 0 1024 1024" version="1.1" xmlns="http://www.w3.org/2000/svg" p-id="3234" xmlns:xlink="http://www.w3.org/1999/xlink" width="200" height="200"><defs><style type="text/css"></style></defs><path d="M205.144064 204.8m-204.8 0a204.8 204.8 0 1 0 409.6 0 204.8 204.8 0 1 0-409.6 0Z" p-id="3235"></path><path d="M819.544064 204.8m-204.8 0a204.8 204.8 0 1 0 409.6 0 204.8 204.8 0 1 0-409.6 0Z" p-id="3236"></path><path d="M819.544064 460.8a204.8 204.8 0 0 0-204.8 181.248l-102.4 102.4-102.4-102.4A204.8 204.8 0 0 0 0.344064 665.6v358.4h409.6v-234.496l66.048 66.048a51.2 51.2 0 0 0 72.192 0l66.56-66.048V1024h409.6v-358.4a204.8 204.8 0 0 0-204.8-204.8z" p-id="3237"></path></svg>