<?xml version="1.0" standalone="no"?><!DOCTYPE svg PUBLIC "-//W3C//DTD SVG 1.1//EN" "http://www.w3.org/Graphics/SVG/1.1/DTD/svg11.dtd"><svg t="1645521524290" class="icon" viewBox="0 0 1024 1024" version="1.1" xmlns="http://www.w3.org/2000/svg" p-id="3168" xmlns:xlink="http://www.w3.org/1999/xlink" width="200" height="200"><defs><style type="text/css"></style></defs><path d="M833.008071 655.644444c2.844444 1.479111 6.257778 2.446222 9.159111 3.982223a1632.483556 1632.483556 0 0 0-33.792 248.263111c-2.389333 39.025778-2.844444 78.051556-1.877333 116.110222h-136.533333c13.482667-47.331556 29.866667-93.184 47.786666-137.557333a1832.277333 1832.277333 0 0 1 115.256889-230.798223z m-56.888889-30.208c11.548444 7.281778 23.096889 13.653333 35.157334 19.968l-2.389334 0.512c-41.699556 21.788444-80.725333 48.526222-116.280889 79.530667a649.216 649.216 0 0 0-120.604444 142.449778 769.706667 769.706667 0 0 0-75.264 155.591111H343.820516c9.159111-16.554667 18.830222-33.166222 29.013333-49.265778a931.100444 931.100444 0 0 1 130.218667-163.896889 703.431111 703.431111 0 0 1 164.465777-122.481777c25.088-13.653333 50.631111-24.860444 77.198223-34.588445l-25.031112 2.901333s4.778667-1.934222 12.003556-5.347555c-34.702222 8.760889-68.494222 20.48-101.262222 33.621333a1021.041778 1021.041778 0 0 0-199.736889 109.795556 1471.829333 1471.829333 0 0 0-175.160889 144.384c-25.031111 24.462222-49.664 49.265778-72.817778 74.638222a220.216889 220.216889 0 0 0-25.6-7.281778 562.403556 562.403556 0 0 1-69.404444-19.057778 266.524444 266.524444 0 0 1-25.6-14.620444l-10.126222-10.24c-4.323556-7.338667-9.159111-15.132444-13.027556-22.926222a59.505778 59.505778 0 0 0-2.389333-8.817778c11.548444-9.216 23.608889-18.488889 35.669333-27.761778 32.824889-24.462222 66.56-47.786667 100.807111-70.257778a1553.92 1553.92 0 0 1 214.698667-116.622222c74.296889-32.654222 151.495111-58.538667 230.115555-74.126222a791.665778 791.665778 0 0 1 158.208-16.099556z m90.168889 44.373334c8.704 2.958222 17.351111 6.371556 26.055111 9.272889L1024.04096 853.333333v24.860445a123.448889 123.448889 0 0 1-3.413333 12.686222c-2.844444 5.347556-5.745778 10.24-9.102223 15.587556a528.952889 528.952889 0 0 1-33.336888 32.711111c-9.102222 6.314667-18.773333 12.686222-28.444445 18.545777zM282.608071 592.782222c154.794667-9.272889 307.256889 4.380444 455.850667 30.72-150.983111-0.455111-301.511111 12.231111-445.269334 45.397334a1191.822222 1191.822222 0 0 0-207.928888 67.299555c-27.022222 12.231111-53.532444 25.372444-78.620445 39.537778-2.446222-21.447111-4.380444-42.439111-6.257778-63.431111-0.512-17.066667-0.512-34.645333 0.455111-51.712l4.323556-18.545778c0.512-0.967111 0.512-2.446222 0.967111-3.413333 14.961778-3.868444 29.468444-8.248889 43.918222-11.662223a1280.284444 1280.284444 0 0 1 232.504889-34.133333zM919.365404 240.981333s28.956444 26.851556 28.956445 60.017778c0 19.512889-10.126222 37.091556-18.375111 47.786667v18.545778c2.901333-5.347556 6.826667-10.695111 11.093333-15.075556 19.911111-20.081778 51.427556-21.902222 60.017778-22.016h2.275555s1.422222 40.049778-21.731555 63.431111c-15.928889 15.644444-38.115556 20.024889-51.655111 21.504l0.512 37.034667c2.844444-4.835556 6.257778-9.728 10.126222-13.653334 23.153778-23.893333 62.236444-21.959111 62.236444-21.959111s1.422222 40.049778-21.731555 63.431111c-15.416889 15.132444-37.148444 19.512889-47.786667 22.926223l0.568889 35.612444a53.76 53.76 0 0 1 9.102222-12.174222c23.153778-23.438222 62.236444-21.959111 62.236445-21.959111s1.479111 39.992889-21.674667 63.431111c-14.961778 14.620444-36.181333 19.512889-49.720889 20.992l0.967111 72.647111h-20.707555l-0.967111-72.647111c-13.084444-1.024-37.148444-4.892444-53.589334-21.504-18.545778-18.773333-21.333333-47.217778-21.674666-58.481778v-4.892444s39.082667-1.479111 62.236444 21.902222a52.280889 52.280889 0 0 1 12.060445 17.066667l-0.512-40.96c-13.482667-0.967111-36.636444-5.347556-52.565334-21.447112-23.665778-23.893333-21.731556-63.431111-21.731555-63.431111s39.082667-1.479111 62.236444 21.959111c4.835556 4.892444 8.192 10.24 11.093333 15.587556L910.263182 415.630222c-13.539556-1.422222-36.181333-5.859556-51.655111-21.447111-18.545778-18.773333-21.333333-47.217778-21.674667-58.538667v-4.892444s39.082667-1.479111 62.236445 21.959111a55.637333 55.637333 0 0 1 10.126222 13.653333V349.866667c-8.192-11.264-18.773333-28.785778-18.773333-48.810667 0-28.046222 20.650667-51.598222 27.022222-58.197333zM592.766293 137.102222s28.956444 26.794667 28.956445 59.960889c0 19.569778-10.126222 37.091556-18.375111 47.786667v18.602666c2.901333-5.404444 6.826667-10.752 11.150222-15.132444 23.153778-23.438222 62.179556-21.959111 62.179555-21.959111s1.934222 39.992889-21.219555 63.431111c-15.928889 15.587556-38.115556 19.968-51.598222 21.447111l0.455111 37.091556c2.901333-4.892444 6.257778-9.784889 10.183111-13.653334 19.797333-20.081778 51.370667-21.902222 59.960889-21.959111h2.275555s1.877333 39.537778-21.276444 62.919111c-15.416889 15.132444-37.148444 19.512889-51.143111 22.926223l0.512 35.612444a53.703111 53.703111 0 0 1 9.159111-12.174222c18.204444-18.773333 46.193778-21.617778 57.400889-21.959111h4.835555s1.934222 39.992889-21.219555 63.431111c-14.961778 14.620444-36.181333 19.512889-49.720889 20.935111l0.967111 72.704h-20.707556l-0.512-72.704c-13.027556-0.967111-37.148444-4.835556-53.532444-21.447111-19.854222-20.48-21.617778-52.451556-21.731556-61.155556v-2.275555s39.594667-1.422222 62.748445 21.959111a52.280889 52.280889 0 0 1 12.060444 17.066666l-0.512-40.96c-13.482667-0.967111-36.636444-5.347556-52.565333-21.447111-19.854222-20.081778-21.617778-51.996444-21.731556-60.700444v-2.275556s39.594667-1.422222 62.748445 21.959111c4.835556 4.892444 8.192 10.24 11.093333 15.644445l-0.512-39.025778c-13.482667-1.479111-36.181333-5.859556-51.598222-21.504-19.854222-20.48-21.617778-52.451556-21.731556-61.155555v-2.275556s39.594667-1.422222 62.748445 22.016a55.637333 55.637333 0 0 1 10.126222 13.653333v-16.611555c-8.192-11.207111-18.773333-28.785778-18.773333-48.810667 0-28.046222 20.650667-51.598222 27.079111-58.140444z m-372.906666-24.917333s28.956444 26.851556 28.956444 60.017778c0 19.512889-10.126222 37.091556-18.375111 47.786666v18.545778c2.901333-5.347556 6.826667-10.695111 11.150222-15.075555 19.797333-20.081778 51.370667-21.902222 59.960889-22.016h2.275556s1.422222 40.049778-21.731556 63.488c-15.416889 15.587556-37.660444 19.968-51.143111 21.447111l0.455111 37.091555c2.901333-4.892444 6.257778-9.784889 10.183111-13.653333 23.153778-23.893333 62.179556-21.959111 62.179556-21.959111s1.479111 39.992889-21.674667 63.374222c-15.473778 15.644444-37.148444 20.024889-48.241778 22.926222l0.455111 35.612445a53.816889 53.816889 0 0 1 9.159112-12.174223c23.153778-23.438222 62.236444-21.959111 62.236444-21.959111s1.479111 39.992889-21.674667 63.431111c-14.961778 14.620444-36.181333 19.512889-49.720889 20.992l0.967112 72.647112h-20.707556l-0.967111-72.647112C200.517404 459.093333 176.396516 455.111111 160.012516 438.556444c-18.545778-18.773333-21.333333-47.217778-21.674667-58.481777v-4.892445s39.082667-1.479111 62.236444 21.902222a52.280889 52.280889 0 0 1 12.060445 17.066667l-0.512-40.96c-13.482667-0.967111-36.636444-5.347556-52.565334-21.447111-23.665778-23.893333-21.731556-63.431111-21.731555-63.431111s39.082667-1.479111 62.236444 21.959111c4.835556 4.892444 8.192 10.24 11.093334 15.587556l-0.455111-39.025778c-13.539556-1.422222-36.181333-5.859556-51.655112-21.447111-18.545778-18.773333-21.333333-47.217778-21.674666-58.538667V201.955556s39.082667-1.422222 62.236444 21.959111a55.637333 55.637333 0 0 1 10.126222 13.653333v-16.554667c-8.192-11.264-18.773333-28.785778-18.773333-48.810666 0-28.046222 20.650667-51.598222 27.079111-58.140445zM995.596516 198.087111v90.225778h-20.764445V198.087111h20.764445z m-135.566223 0v90.225778h-20.764444V198.087111h20.764444z m67.527111-69.802667v90.282667h-20.764444V128.284444h20.764444z m-393.159111-34.588444v90.225778h-20.764444V93.696h20.764444z m135.566223 0v90.225778h-20.764445V93.696h20.764445z m-508.984889-23.893333v90.225777h-20.707556V69.745778h20.707556z m135.566222 0v90.225777h-20.707556V69.745778h20.707556zM601.925404 23.893333v90.282667h-20.764444V23.893333h20.764444zM228.563627 0v90.225778h-20.764445V0h20.764445z" fill="#D48038" p-id="3169"></path></svg>