<?xml version="1.0" standalone="no"?><!DOCTYPE svg PUBLIC "-//W3C//DTD SVG 1.1//EN" "http://www.w3.org/Graphics/SVG/1.1/DTD/svg11.dtd"><svg t="1645522604726" class="icon" viewBox="0 0 1220 1024" version="1.1" xmlns="http://www.w3.org/2000/svg" p-id="5544" xmlns:xlink="http://www.w3.org/1999/xlink" width="238.28125" height="200"><defs><style type="text/css"></style></defs><path d="M201.352356 267.944612H137.694177a21.33317 21.33317 0 0 0-18.431858 17.066536L0.137899 948.21673A51.199607 51.199607 0 0 0 0.137899 955.726006a69.631466 69.631466 0 0 0 70.655458 68.266143h1083.554359a63.316848 63.316848 0 0 0 7.509276-0.853326 70.314128 70.314128 0 0 0 46.591643-29.013111 65.706163 65.706163 0 0 0 11.093248-49.834285l-119.465751-661.840259a21.33317 21.33317 0 0 0-20.650508-14.33589h-85.332679a20.821174 20.821174 0 0 0-18.773189 20.650508v2.730646a21.162504 21.162504 0 0 0 21.162504 17.919862h65.194167L1177.72887 955.726006v1.023992a27.135792 27.135792 0 0 1-23.039823 25.429139H65.332066A26.965127 26.965127 0 0 1 43.657565 955.726006v-3.754638l115.369782-642.555074H204.936329a20.991839 20.991839 0 0 0 18.773189-20.650508 21.33317 21.33317 0 0 0-22.357162-20.821174z" p-id="5545"></path><path d="M699.865867 615.248616a61.098198 61.098198 0 0 0 58.538218 51.199608h152.2335a57.00223 57.00223 0 0 0 46.250312-23.210489 68.266143 68.266143 0 0 0 11.77591-59.732875l-40.44769-151.038842A60.415537 60.415537 0 0 0 870.531226 385.874375h-143.188236a62.634186 62.634186 0 0 0-60.415537 64.852836 68.266143 68.266143 0 0 0 1.365323 14.33589z m17.066536-178.174634a25.599804 25.599804 0 0 1 20.138513-9.55726h124.927042a25.770469 25.770469 0 0 1 25.599803 19.11452c6.655949 26.282465 29.354442 113.151133 38.058375 146.260212a25.599804 25.599804 0 0 1-4.437299 22.357162 25.941134 25.941134 0 0 1-20.479843 9.898591h-133.118979a25.770469 25.770469 0 0 1-25.087808-20.479843c-5.631957-26.965127-23.551819-113.151133-30.378434-145.57755a25.941134 25.941134 0 0 1 4.77863-22.015832zM832.984847 47.103639A61.439529 61.439529 0 0 0 777.518605 0H648.66626a62.975517 62.975517 0 0 0-60.415537 65.023501 74.410096 74.410096 0 0 0 1.365323 13.823895l34.133072 170.665358a60.927533 60.927533 0 0 0 59.050214 51.199607h136.532286a57.684891 57.684891 0 0 0 46.420978-23.039823 69.631466 69.631466 0 0 0 11.775909-59.732876z m-1.023992 203.603772a20.821174 20.821174 0 0 1-17.066536 8.362603h-120.319078A28.67178 28.67178 0 0 1 665.732796 236.03019c-7.679941-38.058375-34.133072-165.033401-34.133072-165.033401a26.965127 26.965127 0 0 1 4.607965-21.845166 21.6745 21.6745 0 0 1 17.066536-7.509276h110.932482a28.501115 28.501115 0 0 1 27.306458 21.162505L836.398154 227.838253a27.818453 27.818453 0 0 1-4.437299 22.869158zM464.518338 95.743266h-61.268863a61.268864 61.268864 0 0 0-59.050214 51.199607l-93.01262 440.316625A65.023501 65.023501 0 0 0 295.218303 665.594897a56.831564 56.831564 0 0 0 15.018552 2.047984H546.267045a63.146183 63.146183 0 0 0 60.586202-65.023501 77.482073 77.482073 0 0 0-1.194657-12.799902L523.909883 147.966866a61.78086 61.78086 0 0 0-59.391545-52.2236z m86.527337 514.72672a40.959686 40.959686 0 0 1-31.573091 14.847887h-201.385123a23.210489 23.210489 0 0 1-24.405146-29.695773s76.45808-359.762575 91.988628-433.319344A31.914422 31.914422 0 0 1 416.732038 136.532287h34.133072a31.743757 31.743757 0 0 1 31.23176 25.941134l77.652738 414.37549a40.618355 40.618355 0 0 1-8.703933 33.621075z" fill="#FBB03B" p-id="5546"></path></svg>