<?xml version="1.0" standalone="no"?><!DOCTYPE svg PUBLIC "-//W3C//DTD SVG 1.1//EN" "http://www.w3.org/Graphics/SVG/1.1/DTD/svg11.dtd"><svg t="1645516044184" class="icon" viewBox="0 0 1024 1024" version="1.1" xmlns="http://www.w3.org/2000/svg" p-id="15149" xmlns:xlink="http://www.w3.org/1999/xlink" width="200" height="200"><defs><style type="text/css"></style></defs><path d="M767.4 391.1c0.5-34.4-16.2-54.9-45.4-67.4-16-6.9-33-11.4-50.7-12.7-103.1-7.1-206.4-2.8-309.5-2.5-23.3 0.1-46.5 4.4-68.1 14.4-28.9 13.4-45.8 34.1-45.3 68 0.8 61.7 0.7 123.4 0 185-0.2 18.2 8.2 27.7 24.2 32.6 25.8 7.9 49.4 3.7 70.8-14.6C357 697.9 371.5 800 383 902.3c2.8 25.3 15.5 34.6 36.2 40.3h42.9c10.8-3.2 21.6-5.4 30.8-13.6 8.7-7.8 21.8-8 30.4-0.9 11 9.2 23.3 12 36.3 14.5h42.9c14.2-6.1 28.4-11.2 30.7-30.4C642 841.4 651.6 770.7 661 700c4.6-34.5 9.4-68.9 14.2-104.5 21.6 15.6 34.5 18.9 58.2 15.6 25.7-3.5 35.8-15.1 35.6-41-0.8-59.6-2.5-119.3-1.6-179zM508.6 776.4c-27.4-3.1-43.4-17.5-48-43.4 3-30.5 19-47.2 48-50.3 30.5 3.1 47.2 19.8 50.3 50.3-4.6 25.9-21.3 40.3-50.3 43.4z m73.2-223.9c-36.6 27.4-54.8 54.8-54.8 82.3v25.1h-29.7v-36.6c0-21.3 8.4-42.6 25.1-64 18.3-24.3 27.4-49.5 27.4-75.4 0-56.3-18.3-84.5-54.8-84.5-27.4 1.5-47.2 12.2-59.4 32h9.1c30.5 0 45.7 13 45.7 38.8-3.1 24.4-18.3 38.1-45.7 41.1-27.4-3-42.7-19-45.7-48 6.1-54.8 44.9-84.5 116.5-89.1 79.2 3.1 121.1 32 125.7 86.8 0 30.5-19.8 61-59.4 91.5z" p-id="15150"></path><path d="M506.7 169.2m-103.3 0a103.3 103.3 0 1 0 206.6 0 103.3 103.3 0 1 0-206.6 0Z" p-id="15151"></path></svg>