<?xml version="1.0" standalone="no"?><!DOCTYPE svg PUBLIC "-//W3C//DTD SVG 1.1//EN" "http://www.w3.org/Graphics/SVG/1.1/DTD/svg11.dtd"><svg t="1645521023204" class="icon" viewBox="0 0 1024 1024" version="1.1" xmlns="http://www.w3.org/2000/svg" p-id="7064" xmlns:xlink="http://www.w3.org/1999/xlink" width="200" height="200"><defs><style type="text/css"></style></defs><path d="M511.818996 281.280226c-36.321471 0-66.307801 29.98633-66.307801 66.307801 0 36.321471 29.443318 66.307801 66.307801 66.307801 36.924817 0 66.307801-29.98633 66.307801-66.307801 0-36.321471-29.98633-66.307801-66.307801-66.307801z" p-id="7065"></path><path d="M512.362008 8.446854c-192.648598 0-348.975725 156.327127-348.975725 348.372378 0 99.190196 55.387226 212.257365 164.954985 335.702097 79.581428 89.415979 157.473486 150.534999 160.912562 153.431063l23.047843 17.859062 23.047844-17.859062s0.603347-0.603347 1.146359-0.603347c9.774216-8.084846 84.227198-67.514494 159.766203-152.284704 109.567759-123.444733 164.954985-236.511902 164.954984-335.702097 0.120669-191.984916-156.206458-348.91539-348.855055-348.91539z m-0.543012 480.505302c-77.892058 0-141.303794-63.472072-141.303794-141.303794 0-77.892058 63.472072-141.303794 141.303794-141.303794 77.892058 0 141.303794 63.472072 141.303794 141.303794 0 77.831723-63.472072 141.303794-141.303794 141.303794z" p-id="7066"></path><path d="M1007.890643 963.665331l-119.402309-296.484563c-7.481499-19.005421-29.443318-28.236625-49.052086-20.755126-19.005421 7.481499-28.236625 29.443318-20.755126 49.052086l98.647183 245.13976H106.913033l98.647184-245.13976c7.481499-19.005421-1.749705-40.96724-20.755126-49.052086-19.065755-7.481499-40.96724 1.749705-49.052086 20.755126L16.350695 963.665331c-4.585435 11.523922-3.439076 24.797549 3.439076 35.175112a37.32906 37.32906 0 0 0 31.13269 16.712703h921.732736c12.67028 0 24.254537-6.33514 31.132689-16.712703 6.938487-10.377563 8.688192-23.65119 4.102757-35.175112z m0 0" p-id="7067"></path></svg>