<?xml version="1.0" standalone="no"?><!DOCTYPE svg PUBLIC "-//W3C//DTD SVG 1.1//EN" "http://www.w3.org/Graphics/SVG/1.1/DTD/svg11.dtd"><svg t="1645515727852" class="icon" viewBox="0 0 1024 1024" version="1.1" xmlns="http://www.w3.org/2000/svg" p-id="7220" xmlns:xlink="http://www.w3.org/1999/xlink" width="200" height="200"><defs><style type="text/css"></style></defs><path d="M853.269227 0A128.021333 128.021333 0 0 1 981.333227 128.128V469.333333a42.666667 42.666667 0 0 1-85.333334 0V127.936A42.602667 42.602667 0 0 0 853.333227 85.333333H170.66656c-23.68 0-42.666667 19.072-42.666667 42.602667v768.128C127.999893 919.637333 147.093227 938.666667 170.66656 938.666667h256a42.666667 42.666667 0 0 1 0 85.333333H170.73056A128.021333 128.021333 0 0 1 42.66656 895.872V128.128A128.085333 128.085333 0 0 1 170.73056 0h682.538667zM746.66656 554.666667c129.6 0 234.666667 105.066667 234.666667 234.666666s-105.066667 234.666667-234.666667 234.666667-234.666667-105.066667-234.666667-234.666667 105.066667-234.666667 234.666667-234.666666z m0 85.333333a149.333333 149.333333 0 1 0 0 298.666667 149.333333 149.333333 0 0 0 0-298.666667z m0 42.666667c23.573333 0 42.666667 18.922667 42.666667 42.794666V746.666667h0.042666c23.552 0 42.624 18.944 42.624 42.666666 0 23.573333-19.157333 42.666667-42.624 42.666667h-42.752a42.922667 42.922667 0 0 1-13.717333-2.261333 42.496 42.496 0 0 1-28.8-37.205334L703.999893 789.333333v-63.872c0-22.570667 17.258667-41.045333 39.466667-42.666666L746.66656 682.666667zM490.53856 384c22.570667 0 41.045333 17.258667 42.666667 39.466667L533.333227 426.666667c0 23.573333-19.136 42.666667-42.794667 42.666666h-213.077333A42.624 42.624 0 0 1 234.66656 426.666667c0-23.573333 19.136-42.666667 42.794667-42.666667h213.077333z m256.192-192c22.464 0 40.853333 17.258667 42.496 39.466667L789.333227 234.666667a42.666667 42.666667 0 0 1-42.602667 42.666666H277.269227A42.538667 42.538667 0 0 1 234.66656 234.666667a42.666667 42.666667 0 0 1 42.602667-42.666667h469.461333z" fill="#F44B34" p-id="7221"></path></svg>