<?xml version="1.0" standalone="no"?><!DOCTYPE svg PUBLIC "-//W3C//DTD SVG 1.1//EN" "http://www.w3.org/Graphics/SVG/1.1/DTD/svg11.dtd"><svg t="1645515914073" class="icon" viewBox="0 0 1024 1024" version="1.1" xmlns="http://www.w3.org/2000/svg" p-id="11293" xmlns:xlink="http://www.w3.org/1999/xlink" width="200" height="200"><defs><style type="text/css"></style></defs><path d="M512 962.9C263.4 962.9 61.1 760.6 61.1 512S263.4 61.1 512 61.1 962.9 263.4 962.9 512 760.6 962.9 512 962.9z m0-827c-207.4 0-376.1 168.7-376.1 376.1S304.6 888.1 512 888.1 888.1 719.4 888.1 512 719.4 135.9 512 135.9z" fill="#232426" p-id="11294"></path><path d="M725.3 482.6H298.7c-16 0-29-13-29-29s13-29 29-29h338.5l-25.9-17.8c-12.9-9.5-15.6-27.7-6.1-40.6 9.5-12.9 27.7-15.6 40.6-6.1l96.6 70.1c10 7.5 14.2 20.5 10.3 32.5-3.7 12-14.9 19.9-27.4 19.9zM298.7 541.4h426.6c16 0 29 13 29 29s-13 29-29 29H386.7l25.9 17.8c12.9 9.5 15.6 27.7 6.1 40.6-9.5 12.9-27.7 15.6-40.6 6.1l-96.6-70.1c-10-7.5-14.2-20.5-10.3-32.5 3.8-12 15-19.9 27.5-19.9z" fill="#FFCF41" p-id="11295"></path></svg>