<?xml version="1.0" standalone="no"?><!DOCTYPE svg PUBLIC "-//W3C//DTD SVG 1.1//EN" "http://www.w3.org/Graphics/SVG/1.1/DTD/svg11.dtd"><svg t="1645522494490" class="icon" viewBox="0 0 1024 1024" version="1.1" xmlns="http://www.w3.org/2000/svg" p-id="3272" xmlns:xlink="http://www.w3.org/1999/xlink" width="200" height="200"><defs><style type="text/css"></style></defs><path d="M352 576A96 96 0 0 1 448 672v256A96 96 0 0 1 352 1024h-256A96 96 0 0 1 0 928v-256A96 96 0 0 1 96 576h256z m576 0a96 96 0 0 1 96 96v256a96 96 0 0 1-96 96h-256A96 96 0 0 1 576 928v-256A96 96 0 0 1 672 576h256z m-576 64h-256a32 32 0 0 0-32 32v256a32 32 0 0 0 32 32h256a32 32 0 0 0 32-32v-256a32 32 0 0 0-32-32z m576 0h-256a32 32 0 0 0-32 32v256a32 32 0 0 0 32 32h256a32 32 0 0 0 32-32v-256a32 32 0 0 0-32-32z m-576-640A96 96 0 0 1 448 96v256A96 96 0 0 1 352 448h-256A96 96 0 0 1 0 352v-256A96 96 0 0 1 96 0h256z m515.84 65.6l90.56 90.496a96 96 0 0 1 0 135.808L867.84 382.4a96 96 0 0 1-135.808 0L641.6 291.84a96 96 0 0 1 0-135.808l90.496-90.496a96 96 0 0 1 135.808 0zM352 64h-256a32 32 0 0 0-32 32v256a32 32 0 0 0 32 32h256a32 32 0 0 0 32-32v-256a32 32 0 0 0-32-32z m425.344 46.848l-90.496 90.496a32 32 0 0 0 0 45.312l90.496 90.496a32 32 0 0 0 45.312 0l90.496-90.496a32 32 0 0 0 0-45.312l-90.496-90.496a32 32 0 0 0-45.312 0z" fill="#7580B1" p-id="3273"></path></svg>