<?xml version="1.0" standalone="no"?><!DOCTYPE svg PUBLIC "-//W3C//DTD SVG 1.1//EN" "http://www.w3.org/Graphics/SVG/1.1/DTD/svg11.dtd"><svg t="1645521671383" class="icon" viewBox="0 0 1024 1024" version="1.1" xmlns="http://www.w3.org/2000/svg" p-id="2906" xmlns:xlink="http://www.w3.org/1999/xlink" width="200" height="200"><defs><style type="text/css"></style></defs><path d="M512 896 512 896C724.077344 896 896 724.077344 896 512 896 299.922656 724.077344 128 512 128 299.922656 128 128 299.922656 128 512 128 724.077344 299.922656 896 512 896L512 896ZM512 960 512 960C264.576432 960 64 759.423565 64 512 64 264.576432 264.576432 64 512 64 759.423565 64 960 264.576432 960 512 960 759.423565 759.423565 960 512 960L512 960Z" p-id="2907"></path><path d="M480 384 480 555.204211C480 572.877323 494.326888 587.204211 512 587.204211L716.341453 587.204211C734.014566 587.204211 748.341453 572.877323 748.341453 555.204211 748.341453 537.531099 734.014566 523.204211 716.341453 523.204211L512 523.204211 544 555.204211 544 384C544 366.326888 529.673112 352 512 352 494.326888 352 480 366.326888 480 384L480 384Z" p-id="2908"></path></svg>